<mxfile host="app.diagrams.net" modified="2023-09-07T00:17:43.583Z" agent="Mozilla/5.0 (Windows NT 10.0; Win64; x64) AppleWebKit/537.36 (KHTML, like Gecko) Chrome/116.0.0.0 Safari/537.36" etag="CYgvQkHlAisKoqmHT2IQ" version="21.7.2" type="device">
  <diagram name="Página-1" id="epbz1zP86vS3kiXW2ztN">
    <mxGraphModel dx="1687" dy="929" grid="1" gridSize="10" guides="1" tooltips="1" connect="1" arrows="1" fold="1" page="1" pageScale="1" pageWidth="2336" pageHeight="1654" math="0" shadow="0">
      <root>
        <mxCell id="0" />
        <mxCell id="1" parent="0" />
        <mxCell id="WBBj_vI-HJ6hKE8ULzd--5" style="edgeStyle=orthogonalEdgeStyle;rounded=0;orthogonalLoop=1;jettySize=auto;html=1;entryX=0.5;entryY=0;entryDx=0;entryDy=0;exitX=0;exitY=0.5;exitDx=0;exitDy=0;" edge="1" parent="1" source="WBBj_vI-HJ6hKE8ULzd--2" target="WBBj_vI-HJ6hKE8ULzd--3">
          <mxGeometry relative="1" as="geometry">
            <mxPoint x="675" y="100" as="sourcePoint" />
          </mxGeometry>
        </mxCell>
        <mxCell id="WBBj_vI-HJ6hKE8ULzd--21" value="Sim" style="edgeLabel;html=1;align=center;verticalAlign=middle;resizable=0;points=[];" vertex="1" connectable="0" parent="WBBj_vI-HJ6hKE8ULzd--5">
          <mxGeometry x="0.356" y="-4" relative="1" as="geometry">
            <mxPoint y="1" as="offset" />
          </mxGeometry>
        </mxCell>
        <mxCell id="WBBj_vI-HJ6hKE8ULzd--2" value="&lt;font style=&quot;font-size: 10px;&quot;&gt;n1 &amp;gt; n2 and n1 &amp;gt; 3 and n1 &amp;gt; n4 and n1 &amp;gt; n5&lt;/font&gt;" style="rhombus;whiteSpace=wrap;html=1;" vertex="1" parent="1">
          <mxGeometry x="1220" y="10" width="240" height="180" as="geometry" />
        </mxCell>
        <mxCell id="WBBj_vI-HJ6hKE8ULzd--7" style="edgeStyle=orthogonalEdgeStyle;rounded=0;orthogonalLoop=1;jettySize=auto;html=1;exitX=0;exitY=0.5;exitDx=0;exitDy=0;entryX=0.5;entryY=0;entryDx=0;entryDy=0;" edge="1" parent="1" source="WBBj_vI-HJ6hKE8ULzd--3" target="WBBj_vI-HJ6hKE8ULzd--6">
          <mxGeometry relative="1" as="geometry" />
        </mxCell>
        <mxCell id="WBBj_vI-HJ6hKE8ULzd--20" value="Sim" style="edgeLabel;html=1;align=center;verticalAlign=middle;resizable=0;points=[];" vertex="1" connectable="0" parent="WBBj_vI-HJ6hKE8ULzd--7">
          <mxGeometry x="-0.5436" relative="1" as="geometry">
            <mxPoint as="offset" />
          </mxGeometry>
        </mxCell>
        <mxCell id="WBBj_vI-HJ6hKE8ULzd--28" style="edgeStyle=orthogonalEdgeStyle;rounded=0;orthogonalLoop=1;jettySize=auto;html=1;entryX=0.5;entryY=0;entryDx=0;entryDy=0;" edge="1" parent="1" source="WBBj_vI-HJ6hKE8ULzd--3" target="WBBj_vI-HJ6hKE8ULzd--27">
          <mxGeometry relative="1" as="geometry" />
        </mxCell>
        <mxCell id="WBBj_vI-HJ6hKE8ULzd--29" value="Não" style="edgeLabel;html=1;align=center;verticalAlign=middle;resizable=0;points=[];" vertex="1" connectable="0" parent="WBBj_vI-HJ6hKE8ULzd--28">
          <mxGeometry x="-0.5098" y="1" relative="1" as="geometry">
            <mxPoint as="offset" />
          </mxGeometry>
        </mxCell>
        <mxCell id="WBBj_vI-HJ6hKE8ULzd--3" value="&lt;font style=&quot;font-size: 10px;&quot;&gt;n2 &amp;gt; n3 and n2 &amp;gt; 4 and n2 &amp;gt; n5&lt;/font&gt;" style="rhombus;whiteSpace=wrap;html=1;" vertex="1" parent="1">
          <mxGeometry x="509" y="230" width="150" height="100" as="geometry" />
        </mxCell>
        <mxCell id="WBBj_vI-HJ6hKE8ULzd--9" style="edgeStyle=orthogonalEdgeStyle;rounded=0;orthogonalLoop=1;jettySize=auto;html=1;entryX=0.5;entryY=0;entryDx=0;entryDy=0;exitX=0;exitY=0.5;exitDx=0;exitDy=0;" edge="1" parent="1" source="WBBj_vI-HJ6hKE8ULzd--6" target="WBBj_vI-HJ6hKE8ULzd--8">
          <mxGeometry relative="1" as="geometry" />
        </mxCell>
        <mxCell id="WBBj_vI-HJ6hKE8ULzd--22" value="Sim" style="edgeLabel;html=1;align=center;verticalAlign=middle;resizable=0;points=[];" vertex="1" connectable="0" parent="WBBj_vI-HJ6hKE8ULzd--9">
          <mxGeometry x="-0.552" y="2" relative="1" as="geometry">
            <mxPoint as="offset" />
          </mxGeometry>
        </mxCell>
        <mxCell id="WBBj_vI-HJ6hKE8ULzd--15" style="edgeStyle=orthogonalEdgeStyle;rounded=0;orthogonalLoop=1;jettySize=auto;html=1;exitX=1;exitY=0.5;exitDx=0;exitDy=0;entryX=0.5;entryY=0;entryDx=0;entryDy=0;" edge="1" parent="1" source="WBBj_vI-HJ6hKE8ULzd--6" target="WBBj_vI-HJ6hKE8ULzd--14">
          <mxGeometry relative="1" as="geometry" />
        </mxCell>
        <mxCell id="WBBj_vI-HJ6hKE8ULzd--31" value="Não" style="edgeLabel;html=1;align=center;verticalAlign=middle;resizable=0;points=[];" vertex="1" connectable="0" parent="WBBj_vI-HJ6hKE8ULzd--15">
          <mxGeometry x="-0.6" y="4" relative="1" as="geometry">
            <mxPoint as="offset" />
          </mxGeometry>
        </mxCell>
        <mxCell id="WBBj_vI-HJ6hKE8ULzd--6" value="&lt;span style=&quot;font-size: 10px;&quot;&gt;n3 &amp;gt; n4 and n3 &amp;gt; n5&lt;/span&gt;" style="rhombus;whiteSpace=wrap;html=1;" vertex="1" parent="1">
          <mxGeometry x="335" y="330" width="150" height="100" as="geometry" />
        </mxCell>
        <mxCell id="WBBj_vI-HJ6hKE8ULzd--11" style="edgeStyle=orthogonalEdgeStyle;rounded=0;orthogonalLoop=1;jettySize=auto;html=1;entryX=0.5;entryY=0;entryDx=0;entryDy=0;" edge="1" parent="1" source="WBBj_vI-HJ6hKE8ULzd--8" target="WBBj_vI-HJ6hKE8ULzd--10">
          <mxGeometry relative="1" as="geometry" />
        </mxCell>
        <mxCell id="WBBj_vI-HJ6hKE8ULzd--23" value="Sim" style="edgeLabel;html=1;align=center;verticalAlign=middle;resizable=0;points=[];" vertex="1" connectable="0" parent="WBBj_vI-HJ6hKE8ULzd--11">
          <mxGeometry x="-0.4061" y="4" relative="1" as="geometry">
            <mxPoint as="offset" />
          </mxGeometry>
        </mxCell>
        <mxCell id="WBBj_vI-HJ6hKE8ULzd--13" style="edgeStyle=orthogonalEdgeStyle;rounded=0;orthogonalLoop=1;jettySize=auto;html=1;exitX=0.5;exitY=1;exitDx=0;exitDy=0;entryX=0.5;entryY=0;entryDx=0;entryDy=0;" edge="1" parent="1" source="WBBj_vI-HJ6hKE8ULzd--8" target="WBBj_vI-HJ6hKE8ULzd--12">
          <mxGeometry relative="1" as="geometry" />
        </mxCell>
        <mxCell id="WBBj_vI-HJ6hKE8ULzd--24" value="Não" style="edgeLabel;html=1;align=center;verticalAlign=middle;resizable=0;points=[];" vertex="1" connectable="0" parent="WBBj_vI-HJ6hKE8ULzd--13">
          <mxGeometry relative="1" as="geometry">
            <mxPoint as="offset" />
          </mxGeometry>
        </mxCell>
        <mxCell id="WBBj_vI-HJ6hKE8ULzd--8" value="&lt;span style=&quot;font-size: 10px;&quot;&gt;n4 &amp;gt; n5&lt;/span&gt;" style="rhombus;whiteSpace=wrap;html=1;" vertex="1" parent="1">
          <mxGeometry x="185" y="430" width="150" height="100" as="geometry" />
        </mxCell>
        <mxCell id="WBBj_vI-HJ6hKE8ULzd--10" value="&lt;font style=&quot;font-size: 11px;&quot; color=&quot;#ff3333&quot;&gt;print(n1, n2, n3, n4, n5)&lt;/font&gt;" style="rounded=0;whiteSpace=wrap;html=1;" vertex="1" parent="1">
          <mxGeometry x="40" y="560" width="120" height="60" as="geometry" />
        </mxCell>
        <mxCell id="WBBj_vI-HJ6hKE8ULzd--12" value="&lt;font style=&quot;font-size: 11px;&quot; color=&quot;#ff3333&quot;&gt;print(n1, n2, n3, n5, n4)&lt;/font&gt;" style="rounded=0;whiteSpace=wrap;html=1;" vertex="1" parent="1">
          <mxGeometry x="200" y="560" width="120" height="60" as="geometry" />
        </mxCell>
        <mxCell id="WBBj_vI-HJ6hKE8ULzd--17" style="edgeStyle=orthogonalEdgeStyle;rounded=0;orthogonalLoop=1;jettySize=auto;html=1;entryX=0.5;entryY=0;entryDx=0;entryDy=0;" edge="1" parent="1" source="WBBj_vI-HJ6hKE8ULzd--14" target="WBBj_vI-HJ6hKE8ULzd--16">
          <mxGeometry relative="1" as="geometry" />
        </mxCell>
        <mxCell id="WBBj_vI-HJ6hKE8ULzd--26" value="Não" style="edgeLabel;html=1;align=center;verticalAlign=middle;resizable=0;points=[];" vertex="1" connectable="0" parent="WBBj_vI-HJ6hKE8ULzd--17">
          <mxGeometry x="0.2" y="-2" relative="1" as="geometry">
            <mxPoint as="offset" />
          </mxGeometry>
        </mxCell>
        <mxCell id="WBBj_vI-HJ6hKE8ULzd--19" style="edgeStyle=orthogonalEdgeStyle;rounded=0;orthogonalLoop=1;jettySize=auto;html=1;entryX=0.5;entryY=0;entryDx=0;entryDy=0;" edge="1" parent="1" source="WBBj_vI-HJ6hKE8ULzd--14" target="WBBj_vI-HJ6hKE8ULzd--18">
          <mxGeometry relative="1" as="geometry" />
        </mxCell>
        <mxCell id="WBBj_vI-HJ6hKE8ULzd--25" value="Sim" style="edgeLabel;html=1;align=center;verticalAlign=middle;resizable=0;points=[];" vertex="1" connectable="0" parent="WBBj_vI-HJ6hKE8ULzd--19">
          <mxGeometry x="-0.5862" y="3" relative="1" as="geometry">
            <mxPoint as="offset" />
          </mxGeometry>
        </mxCell>
        <mxCell id="WBBj_vI-HJ6hKE8ULzd--14" value="&lt;span style=&quot;font-size: 10px;&quot;&gt;n4 &amp;gt; n5&lt;/span&gt;" style="rhombus;whiteSpace=wrap;html=1;" vertex="1" parent="1">
          <mxGeometry x="485" y="430" width="150" height="100" as="geometry" />
        </mxCell>
        <mxCell id="WBBj_vI-HJ6hKE8ULzd--16" value="&lt;font style=&quot;font-size: 11px;&quot; color=&quot;#ff3333&quot;&gt;print(n1, n2, n4, n5, n3)&lt;/font&gt;" style="rounded=0;whiteSpace=wrap;html=1;" vertex="1" parent="1">
          <mxGeometry x="500" y="560" width="120" height="60" as="geometry" />
        </mxCell>
        <mxCell id="WBBj_vI-HJ6hKE8ULzd--18" value="&lt;font style=&quot;font-size: 11px;&quot; color=&quot;#ff3333&quot;&gt;print(n1, n2, n4, n5, n3)&lt;/font&gt;" style="rounded=0;whiteSpace=wrap;html=1;" vertex="1" parent="1">
          <mxGeometry x="360" y="560" width="120" height="60" as="geometry" />
        </mxCell>
        <mxCell id="WBBj_vI-HJ6hKE8ULzd--34" style="edgeStyle=orthogonalEdgeStyle;rounded=0;orthogonalLoop=1;jettySize=auto;html=1;entryX=0.5;entryY=0;entryDx=0;entryDy=0;exitX=0;exitY=0.5;exitDx=0;exitDy=0;" edge="1" parent="1" source="WBBj_vI-HJ6hKE8ULzd--27" target="WBBj_vI-HJ6hKE8ULzd--33">
          <mxGeometry relative="1" as="geometry" />
        </mxCell>
        <mxCell id="WBBj_vI-HJ6hKE8ULzd--40" value="Sim" style="edgeLabel;html=1;align=center;verticalAlign=middle;resizable=0;points=[];" vertex="1" connectable="0" parent="WBBj_vI-HJ6hKE8ULzd--34">
          <mxGeometry x="-0.4444" relative="1" as="geometry">
            <mxPoint as="offset" />
          </mxGeometry>
        </mxCell>
        <mxCell id="WBBj_vI-HJ6hKE8ULzd--44" style="edgeStyle=orthogonalEdgeStyle;rounded=0;orthogonalLoop=1;jettySize=auto;html=1;entryX=0.5;entryY=0;entryDx=0;entryDy=0;" edge="1" parent="1" source="WBBj_vI-HJ6hKE8ULzd--27" target="WBBj_vI-HJ6hKE8ULzd--43">
          <mxGeometry relative="1" as="geometry" />
        </mxCell>
        <mxCell id="WBBj_vI-HJ6hKE8ULzd--27" value="&lt;span style=&quot;font-size: 10px;&quot;&gt;n3 &amp;gt; n4 and n3 &amp;gt; n5&lt;/span&gt;" style="rhombus;whiteSpace=wrap;html=1;" vertex="1" parent="1">
          <mxGeometry x="790" y="340" width="150" height="100" as="geometry" />
        </mxCell>
        <mxCell id="WBBj_vI-HJ6hKE8ULzd--30" value="&lt;font color=&quot;#3333ff&quot;&gt;Menor = 2&lt;/font&gt;" style="text;html=1;strokeColor=none;fillColor=none;align=center;verticalAlign=middle;whiteSpace=wrap;rounded=0;" vertex="1" parent="1">
          <mxGeometry x="710" y="290" width="60" height="30" as="geometry" />
        </mxCell>
        <mxCell id="WBBj_vI-HJ6hKE8ULzd--32" value="&lt;font color=&quot;#3333ff&quot;&gt;Menor = 3&lt;/font&gt;" style="text;html=1;strokeColor=none;fillColor=none;align=center;verticalAlign=middle;whiteSpace=wrap;rounded=0;" vertex="1" parent="1">
          <mxGeometry x="485" y="400" width="60" height="30" as="geometry" />
        </mxCell>
        <mxCell id="WBBj_vI-HJ6hKE8ULzd--37" style="edgeStyle=orthogonalEdgeStyle;rounded=0;orthogonalLoop=1;jettySize=auto;html=1;" edge="1" parent="1" source="WBBj_vI-HJ6hKE8ULzd--33" target="WBBj_vI-HJ6hKE8ULzd--36">
          <mxGeometry relative="1" as="geometry" />
        </mxCell>
        <mxCell id="WBBj_vI-HJ6hKE8ULzd--41" value="Sim" style="edgeLabel;html=1;align=center;verticalAlign=middle;resizable=0;points=[];" vertex="1" connectable="0" parent="WBBj_vI-HJ6hKE8ULzd--37">
          <mxGeometry x="0.4" y="2" relative="1" as="geometry">
            <mxPoint as="offset" />
          </mxGeometry>
        </mxCell>
        <mxCell id="WBBj_vI-HJ6hKE8ULzd--39" style="edgeStyle=orthogonalEdgeStyle;rounded=0;orthogonalLoop=1;jettySize=auto;html=1;entryX=0.5;entryY=0;entryDx=0;entryDy=0;" edge="1" parent="1" source="WBBj_vI-HJ6hKE8ULzd--33" target="WBBj_vI-HJ6hKE8ULzd--38">
          <mxGeometry relative="1" as="geometry" />
        </mxCell>
        <mxCell id="WBBj_vI-HJ6hKE8ULzd--42" value="Não" style="edgeLabel;html=1;align=center;verticalAlign=middle;resizable=0;points=[];" vertex="1" connectable="0" parent="WBBj_vI-HJ6hKE8ULzd--39">
          <mxGeometry x="-0.4182" y="-2" relative="1" as="geometry">
            <mxPoint as="offset" />
          </mxGeometry>
        </mxCell>
        <mxCell id="WBBj_vI-HJ6hKE8ULzd--33" value="n4 &amp;gt; n5" style="rhombus;whiteSpace=wrap;html=1;" vertex="1" parent="1">
          <mxGeometry x="665" y="430" width="150" height="100" as="geometry" />
        </mxCell>
        <mxCell id="WBBj_vI-HJ6hKE8ULzd--36" value="&lt;font style=&quot;font-size: 11px;&quot; color=&quot;#ff3333&quot;&gt;print(n1, n3, n4, n5, n2)&lt;/font&gt;" style="rounded=0;whiteSpace=wrap;html=1;" vertex="1" parent="1">
          <mxGeometry x="680" y="560" width="120" height="60" as="geometry" />
        </mxCell>
        <mxCell id="WBBj_vI-HJ6hKE8ULzd--38" value="&lt;font style=&quot;font-size: 11px;&quot; color=&quot;#ff3333&quot;&gt;print(n1, n3, n5, n4, n2)&lt;/font&gt;" style="rounded=0;whiteSpace=wrap;html=1;" vertex="1" parent="1">
          <mxGeometry x="840" y="560" width="120" height="60" as="geometry" />
        </mxCell>
        <mxCell id="WBBj_vI-HJ6hKE8ULzd--46" style="edgeStyle=orthogonalEdgeStyle;rounded=0;orthogonalLoop=1;jettySize=auto;html=1;" edge="1" parent="1" source="WBBj_vI-HJ6hKE8ULzd--43" target="WBBj_vI-HJ6hKE8ULzd--45">
          <mxGeometry relative="1" as="geometry" />
        </mxCell>
        <mxCell id="WBBj_vI-HJ6hKE8ULzd--50" value="Sim" style="edgeLabel;html=1;align=center;verticalAlign=middle;resizable=0;points=[];" vertex="1" connectable="0" parent="WBBj_vI-HJ6hKE8ULzd--46">
          <mxGeometry x="0.24" y="-2" relative="1" as="geometry">
            <mxPoint as="offset" />
          </mxGeometry>
        </mxCell>
        <mxCell id="WBBj_vI-HJ6hKE8ULzd--48" style="edgeStyle=orthogonalEdgeStyle;rounded=0;orthogonalLoop=1;jettySize=auto;html=1;entryX=0.5;entryY=0;entryDx=0;entryDy=0;" edge="1" parent="1" source="WBBj_vI-HJ6hKE8ULzd--43" target="WBBj_vI-HJ6hKE8ULzd--47">
          <mxGeometry relative="1" as="geometry" />
        </mxCell>
        <mxCell id="WBBj_vI-HJ6hKE8ULzd--49" value="Não" style="edgeLabel;html=1;align=center;verticalAlign=middle;resizable=0;points=[];" vertex="1" connectable="0" parent="WBBj_vI-HJ6hKE8ULzd--48">
          <mxGeometry x="-0.4375" relative="1" as="geometry">
            <mxPoint as="offset" />
          </mxGeometry>
        </mxCell>
        <mxCell id="WBBj_vI-HJ6hKE8ULzd--43" value="n4 &amp;gt; n5" style="rhombus;whiteSpace=wrap;html=1;" vertex="1" parent="1">
          <mxGeometry x="980" y="430" width="150" height="100" as="geometry" />
        </mxCell>
        <mxCell id="WBBj_vI-HJ6hKE8ULzd--45" value="&lt;font style=&quot;font-size: 11px;&quot; color=&quot;#ff3333&quot;&gt;print(n1, n4, n5, n3, n2)&lt;/font&gt;" style="rounded=0;whiteSpace=wrap;html=1;" vertex="1" parent="1">
          <mxGeometry x="995" y="560" width="120" height="60" as="geometry" />
        </mxCell>
        <mxCell id="WBBj_vI-HJ6hKE8ULzd--47" value="&lt;font style=&quot;font-size: 11px;&quot; color=&quot;#ff3333&quot;&gt;print(n1, n5, n4, n3, n2)&lt;/font&gt;" style="rounded=0;whiteSpace=wrap;html=1;" vertex="1" parent="1">
          <mxGeometry x="1150" y="560" width="120" height="60" as="geometry" />
        </mxCell>
      </root>
    </mxGraphModel>
  </diagram>
</mxfile>
